<?xml version="1.0" standalone="no"?>
<!DOCTYPE svg PUBLIC "-//W3C//DTD SVG 20010904//EN"
 "http://www.w3.org/TR/2001/REC-SVG-20010904/DTD/svg10.dtd">
<svg version="1.0" xmlns="http://www.w3.org/2000/svg"
 width="260.000000pt" height="260.000000pt" viewBox="0 0 260.000000 260.000000"
 preserveAspectRatio="xMidYMid meet">
<metadata>
Created by potrace 1.11, written by Peter Selinger 2001-2013
</metadata>
<g transform="translate(0.000000,260.000000) scale(0.100000,-0.100000)"
fill="#000000" stroke="none">
<path d="M0 1300 l0 -1300 1300 0 1300 0 0 1300 0 1300 -1300 0 -1300 0 0
-1300z m1028 420 c145 -154 267 -280 272 -280 5 0 127 126 272 280 l263 279
133 1 132 0 0 -700 0 -700 -150 0 -150 0 -2 472 -3 472 -244 -255 c-134 -140
-247 -254 -251 -254 -4 0 -117 114 -251 254 l-244 255 -3 -472 -2 -472 -150 0
-150 0 0 700 0 700 133 0 132 0 263 -280z"/>
</g>
</svg>
