<svg xmlns="http://www.w3.org/2000/svg" width="155.001" height="14" viewBox="0 0 155.001 14"><defs><style>.a{fill:#2a2a2a;}</style></defs><g transform="translate(-599.999 -394)"><path class="a" d="M600,408h3v-9.5l5,5.219,5-5.219V408h3V394h-2.625L608,399.7l-5.362-5.7H600Z"/><path class="a" d="M648.3,408H625.574a7.188,7.188,0,0,1-7.221-6.109A7.009,7.009,0,0,1,625.3,394h22.724a7.186,7.186,0,0,1,7.22,6.109A7.008,7.008,0,0,1,648.3,408Zm-23-11a4,4,0,0,0-3.984,4.367A4.143,4.143,0,0,0,625.508,405h22.579a4.143,4.143,0,0,0,4.194-3.633A4,4,0,0,0,648.3,397Z"/><path class="a" d="M668,401a4.007,4.007,0,0,0-4-4h-4v8h4a4,4,0,0,0,4-4m-4.21,7H657V394h7a7.016,7.016,0,0,1,6.833,8.567A7.129,7.129,0,0,1,663.792,408Z"/><path class="a" d="M705,394h-3v7a7,7,0,0,0,7,7h23a7,7,0,0,0,7-7v-7h-3v7a4.006,4.006,0,0,1-4,4H709a4,4,0,0,1-4-4"/><path class="a" d="M684,394v7a4,4,0,1,1-8,0v-7h-3v6.79a7.129,7.129,0,0,0,5.433,7.04A7.016,7.016,0,0,0,687,401v-7Z"/><path class="a" d="M692,405V394h-3v14h12v-3Z"/><path class="a" d="M754.9,402.558a4.617,4.617,0,0,0-4.58-3.558H745a1,1,0,0,1,0-2h9v-3h-8.845a4.106,4.106,0,0,0-4.071,3.157A4.009,4.009,0,0,0,745,402h5.5a1.5,1.5,0,0,1,0,3H741v3h9.5A4.508,4.508,0,0,0,754.9,402.558Z"/><path class="a" d="M745,405"/></g></svg>