<svg xmlns="http://www.w3.org/2000/svg" width="1248" height="478" viewBox="0 0 1248 478"><defs><style>.a,.b,.c{fill:rgba(255,255,255,0);opacity:0.53;}.a{stroke:#888;}.b{stroke:#ff6400;}.c{stroke:#707070;}.d{stroke:none;}.e{fill:none;}</style></defs><g transform="translate(-16 -187)"><g class="a" transform="translate(16 218)"><circle class="d" cx="208" cy="208" r="208"/><circle class="e" cx="208" cy="208" r="207.5"/></g><g class="a" transform="translate(16 249)"><circle class="d" cx="208" cy="208" r="208"/><circle class="e" cx="208" cy="208" r="207.5"/></g><g class="a" transform="translate(16 187)"><circle class="d" cx="208" cy="208" r="208"/><circle class="e" cx="208" cy="208" r="207.5"/></g><g class="b" transform="translate(432 218)"><circle class="d" cx="208" cy="208" r="208"/><circle class="e" cx="208" cy="208" r="207.5"/></g><g class="b" transform="translate(432 249)"><circle class="d" cx="208" cy="208" r="208"/><circle class="e" cx="208" cy="208" r="207.5"/></g><g class="b" transform="translate(432 187)"><circle class="d" cx="208" cy="208" r="208"/><circle class="e" cx="208" cy="208" r="207.5"/></g><g class="c" transform="translate(848 218)"><circle class="d" cx="208" cy="208" r="208"/><circle class="e" cx="208" cy="208" r="207.5"/></g><g class="c" transform="translate(848 249)"><circle class="d" cx="208" cy="208" r="208"/><circle class="e" cx="208" cy="208" r="207.5"/></g><g class="c" transform="translate(848 187)"><circle class="d" cx="208" cy="208" r="208"/><circle class="e" cx="208" cy="208" r="207.5"/></g></g></svg>