<svg xmlns="http://www.w3.org/2000/svg" width="1252" height="565" viewBox="0 0 1252 565"><defs><style>.a{fill:#ffb17f;}.b{fill:#ff6400;}.c{fill:#fff;stroke:#ff6400;}.d{fill:rgba(255,255,255,0);}.e,.g{stroke:none;}.f{fill:none;}.g{fill:#1a1a1a;}</style></defs><g transform="translate(-32.998 -598)"><rect class="a" width="254" height="15" transform="translate(32.998 704)"/><rect class="b" width="255" height="15" transform="translate(284.998 751)"/><g class="c" transform="translate(536.998 813)"><rect class="e" width="244" height="46"/><rect class="f" x="0.5" y="0.5" width="243" height="45"/></g><g class="c" transform="translate(788.998 891)"><rect class="e" width="244" height="180"/><rect class="f" x="0.5" y="0.5" width="243" height="179"/></g><rect class="b" width="244" height="196" transform="translate(1040.998 967)"/><g class="d" transform="translate(32.998 597.998)"><path class="e" d="M 1179.297607421875 296.5018005371094 L 1080.500122070313 296.5018005371094 L 1080.500122070313 285.0020141601563 L 1080.500122070313 212.5020294189453 L 1008.000122070313 212.5020294189453 L 828.5001220703125 212.5020294189453 L 828.5001220703125 207.0018005371094 L 828.5001220703125 134.5018005371094 L 756.0001220703125 134.5018005371094 L 576.5001220703125 134.5018005371094 L 576.5001220703125 80.50180053710938 L 504.0001220703125 80.50180053710938 L 324.5001220703125 80.50180053710938 L 324.5001220703125 72.50180053710938 L 515.5685424804688 72.50180053710938 L 789.8499145507813 72.50180053710938 L 1035.259155273438 72.50180053710938 L 1179.297607421875 72.50180053710938 L 1179.297607421875 296.5018005371094 Z"/><path class="g" d="M 1251.797607421875 369.0018005371094 L 1007.999938964844 369.0018005371094 L 1007.999938964844 285.0021057128906 L 755.9999389648438 285.0021057128906 L 755.9999389648438 207.0018005371094 L 503.9999389648438 207.0018005371094 L 503.9999389648438 153.0018005371094 L 251.9999542236328 153.0018005371094 L 251.9999542236328 106.0020980834961 L 0.00171702669467777 106.0020980834961 L 0.00171702669467777 0.001800537109375 L 267.0652465820313 0.001800537109375 L 515.5684814453125 0.001800537109375 L 789.8499755859375 0.001800537109375 L 1035.259399414063 0.001800537109375 L 1251.797607421875 0.001800537109375 L 1251.797607421875 369.0018005371094 Z"/></g></g></svg>