<svg xmlns="http://www.w3.org/2000/svg" width="250" height="319" viewBox="0 0 250 319"><defs><style>.a{fill:rgba(255,255,255,0);stroke:#707070;opacity:0.53;}.b{fill:rgba(255,100,0,0.38);}.c{fill:#888;}.d{fill:#ff6400;}.e{fill:rgba(136,136,136,0.5);}.f{stroke:none;}.g{fill:none;}</style></defs><g transform="translate(-16 -1963)"><g class="a" transform="translate(16 2088)"><circle class="f" cx="42" cy="42" r="42"/><circle class="g" cx="42" cy="42" r="41.5"/></g><circle class="b" cx="42" cy="42" r="42" transform="translate(99 2088)"/><circle class="c" cx="42" cy="42" r="42" transform="translate(99 2198)"/><circle class="d" cx="42" cy="42" r="42" transform="translate(16 2198)"/><ellipse class="e" cx="41.5" cy="42" rx="41.5" ry="42" transform="translate(183 2088)"/><g class="a" transform="translate(16 2004)"><circle class="f" cx="42" cy="42" r="42"/><circle class="g" cx="42" cy="42" r="41.5"/></g><g class="a" transform="translate(99 2004)"><circle class="f" cx="42" cy="42" r="42"/><circle class="g" cx="42" cy="42" r="41.5"/></g><g class="a" transform="translate(183 2004)"><ellipse class="f" cx="41.5" cy="42" rx="41.5" ry="42"/><ellipse class="g" cx="41.5" cy="42" rx="41" ry="41.5"/></g><g class="a" transform="translate(16 2047)"><circle class="f" cx="42" cy="42" r="42"/><circle class="g" cx="42" cy="42" r="41.5"/></g><g class="a" transform="translate(99 2047)"><circle class="f" cx="42" cy="42" r="42"/><circle class="g" cx="42" cy="42" r="41.5"/></g><g class="a" transform="translate(183 2047)"><ellipse class="f" cx="41.5" cy="42" rx="41.5" ry="42"/><ellipse class="g" cx="41.5" cy="42" rx="41" ry="41.5"/></g><g class="a" transform="translate(16 1963)"><circle class="f" cx="42" cy="42" r="42"/><circle class="g" cx="42" cy="42" r="41.5"/></g><g class="a" transform="translate(99 1963)"><circle class="f" cx="42" cy="42" r="42"/><circle class="g" cx="42" cy="42" r="41.5"/></g><g class="a" transform="translate(183 1963)"><ellipse class="f" cx="41.5" cy="42" rx="41.5" ry="42"/><ellipse class="g" cx="41.5" cy="42" rx="41" ry="41.5"/></g></g></svg>