<svg xmlns="http://www.w3.org/2000/svg" width="216" height="77" viewBox="0 0 216 77"><defs><style>.a{fill:rgba(255,255,255,0);stroke:#c3c3c3;}.b{stroke:none;}.c{fill:none;}</style></defs><g transform="translate(-778 -2913)"><g class="a" transform="translate(778 2932)"><ellipse class="b" cx="36.5" cy="29" rx="36.5" ry="29"/><ellipse class="c" cx="36.5" cy="29" rx="36" ry="28.5"/></g><g class="a" transform="translate(850 2932)"><ellipse class="b" cx="36.5" cy="29" rx="36.5" ry="29"/><ellipse class="c" cx="36.5" cy="29" rx="36" ry="28.5"/></g><g class="a" transform="translate(922 2932)"><ellipse class="b" cx="36" cy="29" rx="36" ry="29"/><ellipse class="c" cx="36" cy="29" rx="35.5" ry="28.5"/></g><g class="a" transform="translate(778 2926)"><ellipse class="b" cx="36.5" cy="29" rx="36.5" ry="29"/><ellipse class="c" cx="36.5" cy="29" rx="36" ry="28.5"/></g><g class="a" transform="translate(850 2926)"><ellipse class="b" cx="36.5" cy="29" rx="36.5" ry="29"/><ellipse class="c" cx="36.5" cy="29" rx="36" ry="28.5"/></g><g class="a" transform="translate(922 2926)"><ellipse class="b" cx="36" cy="29" rx="36" ry="29"/><ellipse class="c" cx="36" cy="29" rx="35.5" ry="28.5"/></g><g class="a" transform="translate(778 2919)"><ellipse class="b" cx="36.5" cy="29" rx="36.5" ry="29"/><ellipse class="c" cx="36.5" cy="29" rx="36" ry="28.5"/></g><g class="a" transform="translate(850 2919)"><ellipse class="b" cx="36.5" cy="29" rx="36.5" ry="29"/><ellipse class="c" cx="36.5" cy="29" rx="36" ry="28.5"/></g><g class="a" transform="translate(922 2919)"><ellipse class="b" cx="36" cy="29" rx="36" ry="29"/><ellipse class="c" cx="36" cy="29" rx="35.5" ry="28.5"/></g><g class="a" transform="translate(778 2913)"><ellipse class="b" cx="36.5" cy="29" rx="36.5" ry="29"/><ellipse class="c" cx="36.5" cy="29" rx="36" ry="28.5"/></g><g class="a" transform="translate(850 2913)"><ellipse class="b" cx="36.5" cy="29" rx="36.5" ry="29"/><ellipse class="c" cx="36.5" cy="29" rx="36" ry="28.5"/></g><g class="a" transform="translate(922 2913)"><ellipse class="b" cx="36" cy="29" rx="36" ry="29"/><ellipse class="c" cx="36" cy="29" rx="35.5" ry="28.5"/></g></g></svg>