<svg xmlns="http://www.w3.org/2000/svg" width="250" height="93" viewBox="0 0 250 93"><defs><style>.a{fill:rgba(255,255,255,0);stroke:#c3c3c3;}.b{stroke:none;}.c{fill:none;}</style></defs><g transform="translate(-616 -3023.053)"><g class="a" transform="translate(616 3079.053)"><ellipse class="b" cx="42" cy="18.5" rx="42" ry="18.5"/><ellipse class="c" cx="42" cy="18.5" rx="41.5" ry="18"/></g><g class="a" transform="translate(699 3079.053)"><ellipse class="b" cx="42" cy="18.5" rx="42" ry="18.5"/><ellipse class="c" cx="42" cy="18.5" rx="41.5" ry="18"/></g><g class="a" transform="translate(783 3079.053)"><ellipse class="b" cx="41.5" cy="18.5" rx="41.5" ry="18.5"/><ellipse class="c" cx="41.5" cy="18.5" rx="41" ry="18"/></g><g class="a" transform="translate(616 3042.053)"><ellipse class="b" cx="42" cy="18.5" rx="42" ry="18.5"/><ellipse class="c" cx="42" cy="18.5" rx="41.5" ry="18"/></g><g class="a" transform="translate(699 3042.053)"><ellipse class="b" cx="42" cy="18.5" rx="42" ry="18.5"/><ellipse class="c" cx="42" cy="18.5" rx="41.5" ry="18"/></g><g class="a" transform="translate(783 3042.053)"><ellipse class="b" cx="41.5" cy="18.5" rx="41.5" ry="18.5"/><ellipse class="c" cx="41.5" cy="18.5" rx="41" ry="18"/></g><g class="a" transform="translate(616 3060.053)"><ellipse class="b" cx="42" cy="18.5" rx="42" ry="18.5"/><ellipse class="c" cx="42" cy="18.5" rx="41.5" ry="18"/></g><g class="a" transform="translate(699 3060.053)"><ellipse class="b" cx="42" cy="18.5" rx="42" ry="18.5"/><ellipse class="c" cx="42" cy="18.5" rx="41.5" ry="18"/></g><g class="a" transform="translate(783 3060.053)"><ellipse class="b" cx="41.5" cy="18.5" rx="41.5" ry="18.5"/><ellipse class="c" cx="41.5" cy="18.5" rx="41" ry="18"/></g><g class="a" transform="translate(616 3023.053)"><ellipse class="b" cx="42" cy="18.5" rx="42" ry="18.5"/><ellipse class="c" cx="42" cy="18.5" rx="41.5" ry="18"/></g><g class="a" transform="translate(699 3023.053)"><ellipse class="b" cx="42" cy="18.5" rx="42" ry="18.5"/><ellipse class="c" cx="42" cy="18.5" rx="41.5" ry="18"/></g><g class="a" transform="translate(783 3023.053)"><ellipse class="b" cx="41.5" cy="18.5" rx="41.5" ry="18.5"/><ellipse class="c" cx="41.5" cy="18.5" rx="41" ry="18"/></g></g></svg>