<svg xmlns="http://www.w3.org/2000/svg" width="218" height="82" viewBox="0 0 218 82"><defs><style>.a{fill:rgba(255,255,255,0);stroke:#c3c3c3;}.b{stroke:none;}.c{fill:none;}</style></defs><g transform="translate(-920 -2194.513)"><g class="a" transform="translate(920 2244.513)"><ellipse class="b" cx="37" cy="16" rx="37" ry="16"/><ellipse class="c" cx="37" cy="16" rx="36.5" ry="15.5"/></g><g class="a" transform="translate(993 2244.513)"><ellipse class="b" cx="36.5" cy="16" rx="36.5" ry="16"/><ellipse class="c" cx="36.5" cy="16" rx="36" ry="15.5"/></g><g class="a" transform="translate(1065 2244.513)"><ellipse class="b" cx="36.5" cy="16" rx="36.5" ry="16"/><ellipse class="c" cx="36.5" cy="16" rx="36" ry="15.5"/></g><g class="a" transform="translate(920 2211.513)"><ellipse class="b" cx="37" cy="16.5" rx="37" ry="16.5"/><ellipse class="c" cx="37" cy="16.5" rx="36.5" ry="16"/></g><g class="a" transform="translate(993 2211.513)"><ellipse class="b" cx="36.5" cy="16.5" rx="36.5" ry="16.5"/><ellipse class="c" cx="36.5" cy="16.5" rx="36" ry="16"/></g><g class="a" transform="translate(1065 2211.513)"><ellipse class="b" cx="36.5" cy="16.5" rx="36.5" ry="16.5"/><ellipse class="c" cx="36.5" cy="16.5" rx="36" ry="16"/></g><g class="a" transform="translate(920 2227.513)"><ellipse class="b" cx="37" cy="16" rx="37" ry="16"/><ellipse class="c" cx="37" cy="16" rx="36.5" ry="15.5"/></g><g class="a" transform="translate(993 2227.513)"><ellipse class="b" cx="36.5" cy="16" rx="36.5" ry="16"/><ellipse class="c" cx="36.5" cy="16" rx="36" ry="15.5"/></g><g class="a" transform="translate(1065 2227.513)"><ellipse class="b" cx="36.5" cy="16" rx="36.5" ry="16"/><ellipse class="c" cx="36.5" cy="16" rx="36" ry="15.5"/></g><g class="a" transform="translate(920 2194.513)"><ellipse class="b" cx="37" cy="16.5" rx="37" ry="16.5"/><ellipse class="c" cx="37" cy="16.5" rx="36.5" ry="16"/></g><g class="a" transform="translate(993 2194.513)"><ellipse class="b" cx="36.5" cy="16.5" rx="36.5" ry="16.5"/><ellipse class="c" cx="36.5" cy="16.5" rx="36" ry="16"/></g><g class="a" transform="translate(1065 2194.513)"><ellipse class="b" cx="36.5" cy="16.5" rx="36.5" ry="16.5"/><ellipse class="c" cx="36.5" cy="16.5" rx="36" ry="16"/></g></g></svg>