<svg xmlns="http://www.w3.org/2000/svg" width="249" height="89" viewBox="0 0 249 89"><defs><style>.a{fill:rgba(255,255,255,0);stroke:#c3c3c3;}.b{stroke:none;}.c{fill:none;}</style></defs><g transform="translate(-778 -2912.895)"><g class="a" transform="translate(778 2934.895)"><ellipse class="b" cx="42" cy="33.5" rx="42" ry="33.5"/><ellipse class="c" cx="42" cy="33.5" rx="41.5" ry="33"/></g><g class="a" transform="translate(861 2934.895)"><ellipse class="b" cx="42" cy="33.5" rx="42" ry="33.5"/><ellipse class="c" cx="42" cy="33.5" rx="41.5" ry="33"/></g><g class="a" transform="translate(944 2934.895)"><ellipse class="b" cx="41.5" cy="33.5" rx="41.5" ry="33.5"/><ellipse class="c" cx="41.5" cy="33.5" rx="41" ry="33"/></g><g class="a" transform="translate(778 2927.895)"><ellipse class="b" cx="42" cy="33.5" rx="42" ry="33.5"/><ellipse class="c" cx="42" cy="33.5" rx="41.5" ry="33"/></g><g class="a" transform="translate(861 2927.895)"><ellipse class="b" cx="42" cy="33.5" rx="42" ry="33.5"/><ellipse class="c" cx="42" cy="33.5" rx="41.5" ry="33"/></g><g class="a" transform="translate(944 2927.895)"><ellipse class="b" cx="41.5" cy="33.5" rx="41.5" ry="33.5"/><ellipse class="c" cx="41.5" cy="33.5" rx="41" ry="33"/></g><g class="a" transform="translate(778 2919.895)"><ellipse class="b" cx="42" cy="33.5" rx="42" ry="33.5"/><ellipse class="c" cx="42" cy="33.5" rx="41.5" ry="33"/></g><g class="a" transform="translate(861 2919.895)"><ellipse class="b" cx="42" cy="33.5" rx="42" ry="33.5"/><ellipse class="c" cx="42" cy="33.5" rx="41.5" ry="33"/></g><g class="a" transform="translate(944 2919.895)"><ellipse class="b" cx="41.5" cy="33.5" rx="41.5" ry="33.5"/><ellipse class="c" cx="41.5" cy="33.5" rx="41" ry="33"/></g><g class="a" transform="translate(778 2912.895)"><ellipse class="b" cx="42" cy="33.5" rx="42" ry="33.5"/><ellipse class="c" cx="42" cy="33.5" rx="41.5" ry="33"/></g><g class="a" transform="translate(861 2912.895)"><ellipse class="b" cx="42" cy="33.5" rx="42" ry="33.5"/><ellipse class="c" cx="42" cy="33.5" rx="41.5" ry="33"/></g><g class="a" transform="translate(944 2912.895)"><ellipse class="b" cx="41.5" cy="33.5" rx="41.5" ry="33.5"/><ellipse class="c" cx="41.5" cy="33.5" rx="41" ry="33"/></g></g></svg>