<svg xmlns="http://www.w3.org/2000/svg" width="216" height="179" viewBox="0 0 216 179"><defs><style>.a{fill:rgba(255,255,255,0);stroke:#c3c3c3;}.b{stroke:none;}.c{fill:none;}</style></defs><g transform="translate(-156 -2081.33)"><g class="a" transform="translate(156 2187.33)"><circle class="b" cx="36.5" cy="36.5" r="36.5"/><circle class="c" cx="36.5" cy="36.5" r="36"/></g><g class="a" transform="translate(228 2187.33)"><circle class="b" cx="36.5" cy="36.5" r="36.5"/><circle class="c" cx="36.5" cy="36.5" r="36"/></g><g class="a" transform="translate(300 2187.33)"><ellipse class="b" cx="36" cy="36.5" rx="36" ry="36.5"/><ellipse class="c" cx="36" cy="36.5" rx="35.5" ry="36"/></g><g class="a" transform="translate(156 2115.33)"><circle class="b" cx="36.5" cy="36.5" r="36.5"/><circle class="c" cx="36.5" cy="36.5" r="36"/></g><g class="a" transform="translate(228 2115.33)"><circle class="b" cx="36.5" cy="36.5" r="36.5"/><circle class="c" cx="36.5" cy="36.5" r="36"/></g><g class="a" transform="translate(300 2115.33)"><ellipse class="b" cx="36" cy="36.5" rx="36" ry="36.5"/><ellipse class="c" cx="36" cy="36.5" rx="35.5" ry="36"/></g><g class="a" transform="translate(156 2152.33)"><ellipse class="b" cx="36.5" cy="37" rx="36.5" ry="37"/><ellipse class="c" cx="36.5" cy="37" rx="36" ry="36.5"/></g><g class="a" transform="translate(228 2152.33)"><ellipse class="b" cx="36.5" cy="37" rx="36.5" ry="37"/><ellipse class="c" cx="36.5" cy="37" rx="36" ry="36.5"/></g><g class="a" transform="translate(300 2152.33)"><ellipse class="b" cx="36" cy="37" rx="36" ry="37"/><ellipse class="c" cx="36" cy="37" rx="35.5" ry="36.5"/></g><g class="a" transform="translate(156 2081.33)"><ellipse class="b" cx="36.5" cy="36" rx="36.5" ry="36"/><ellipse class="c" cx="36.5" cy="36" rx="36" ry="35.5"/></g><g class="a" transform="translate(228 2081.33)"><ellipse class="b" cx="36.5" cy="36" rx="36.5" ry="36"/><ellipse class="c" cx="36.5" cy="36" rx="36" ry="35.5"/></g><g class="a" transform="translate(300 2081.33)"><circle class="b" cx="36" cy="36" r="36"/><circle class="c" cx="36" cy="36" r="35.5"/></g></g></svg>